<svg version="1.1" xmlns="http://www.w3.org/2000/svg" style="display: block;" viewBox="0 0 2048 2048" width="200" height="150" preserveAspectRatio="none">
<path transform="translate(0,0)" fill="rgb(255,255,255)" d="M 0 0 L 2048 0 L 2048 2048 L 0 2048 L 0 0 z"/>
<path transform="translate(0,0)" fill="rgb(38,37,37)" d="M 630.194 122.727 C 645.84 124.272 637.442 130.415 644.396 137.116 C 649.314 141.856 659.02 147.972 664.925 152.283 C 678.049 161.863 690.573 171.734 701.159 184.197 C 733.586 223.062 713.142 232.623 710.5 268.245 C 733.227 283.15 776.808 296.662 795.655 317.553 C 798.711 321.423 801.592 328.926 799.958 333.878 C 789.665 365.076 762.607 357.229 741.376 351.641 C 753.506 358.428 765.234 365.91 776.502 374.049 C 793.094 375.201 801.368 380.087 815.342 388.367 C 833.29 399.002 830.121 406.637 822.624 423.545 C 849.343 412.709 850.715 422.186 875.623 425.751 C 936.604 434.479 897.53 536.399 854.659 541.719 C 849.495 542.384 844.247 541.703 839.424 539.743 C 832.541 536.896 825.271 529.15 819.883 526.683 C 807.399 520.969 806.264 524.99 793.992 515.697 C 790.969 519.156 787.622 522.612 784.469 525.98 C 783.97 534.016 783.923 537.141 777.662 543.293 C 765.062 555.671 745.492 557.79 728.937 558.022 C 722.084 566.157 713.357 572.727 705.037 579.33 C 707.528 615.581 693.308 623.484 672.14 650.924 C 634.711 699.445 584.206 748.501 526.855 772.302 C 537.19 771.362 544.497 770.979 554.889 770.886 L 554.851 872.668 C 554.852 902.441 551.48 927.176 564.184 954.943 C 563.136 909.92 562.761 864.884 563.061 819.85 C 563.04 800.554 563.78 772.636 562.496 754.151 C 571.369 752.844 587.292 753.153 596.672 753.14 L 648.238 753.091 L 830.026 753.128 L 830.022 816.497 L 635.349 816.138 C 635.051 836.692 635.372 858.108 635.424 878.727 C 691.76 878.332 748.098 878.298 804.434 878.624 C 803.795 898.958 804.113 921.424 804.02 941.925 L 635.632 941.437 L 635.834 1004.85 L 832.981 1004.28 L 832.945 1069.94 L 631.078 1069.64 C 635.867 1082.04 654.4 1113.63 661.473 1126.67 C 678.106 1157.54 693.744 1188.93 708.363 1220.81 C 749.01 1310.85 777.928 1388.62 808.495 1482.03 C 828.877 1543.09 846.72 1604.97 861.977 1667.51 C 873.905 1668.53 878.055 1672.48 881.324 1684.62 C 884.816 1697.59 888.225 1710.18 892.275 1722.99 C 887.057 1728.74 883.912 1731.7 878.045 1736.82 C 881.485 1745.83 885.173 1751.68 890.25 1759.85 C 906.363 1756 908.276 1767.33 919.832 1771.17 C 951.989 1781.85 992.611 1779.82 1026.34 1778.25 C 1038.32 1778.14 1064.86 1767.78 1075.39 1774.73 C 1102.45 1792.58 1072.04 1823.84 1059.47 1834.95 C 1022.16 1867.94 980.265 1874.69 937.042 1894.59 C 912.486 1905.9 891.489 1922.69 866.561 1932.89 C 832.781 1947.15 822.959 1888.91 815.648 1866.41 C 811.48 1849.06 813.851 1841.64 830.709 1836.6 C 823.381 1818.62 811.185 1795.66 802.355 1777.94 C 790.889 1782.39 783.464 1782.67 774.089 1772.68 C 765.674 1763.72 756.64 1749.14 753.608 1737.35 C 753.608 1737.35 753.819 1732.62 753.311 1732.05 C 742.016 1718.7 727.119 1706.91 717.123 1692.49 C 682.739 1642.9 660.271 1582.99 638.213 1526.95 C 604.918 1442.36 569.019 1380.72 506.362 1315.6 C 500.126 1353.78 500.998 1388.65 490.453 1429.14 C 472.483 1498.16 429.638 1567.16 392.162 1627.23 L 320.632 1742.41 C 318.99 1745.11 322.678 1753.54 320.856 1760.07 C 316.057 1777.26 310.046 1791.04 299.935 1805.67 L 288.259 1806.7 C 284.462 1812.87 280.785 1819.11 277.23 1825.42 C 283.116 1831.98 290.154 1840.38 296.807 1846.24 C 316.076 1863.22 343.137 1878.41 367.606 1885.97 C 385.823 1891.61 423.24 1890.63 410.624 1921.31 C 406.852 1930.48 394.218 1934.27 385.642 1937.09 C 343.093 1949.18 298.692 1939.67 255.397 1938.67 C 227.538 1937.54 199.71 1940.27 171.862 1939.69 C 140.662 1939.04 146.058 1910.81 150.228 1889.36 C 152.807 1876.09 155.148 1861.93 160.232 1849.47 C 162.12 1844.84 172.514 1843.52 176.854 1842.72 C 181.109 1836.73 193.535 1787.98 198.682 1774.14 C 180.731 1761.32 191.298 1742.6 196.067 1725.13 C 198.997 1714.4 199.97 1709.85 209.904 1704.06 L 211.072 1703.39 C 213.824 1692.89 215.215 1673.39 217.519 1661.04 C 223.05 1632.06 230.773 1603.54 240.621 1575.73 C 252.68 1540.88 270.027 1504.83 284.91 1470.7 C 317.145 1396.79 297.093 1326.68 274.283 1253.04 C 267.152 1229.85 259.256 1206.9 250.609 1184.23 C 230.721 1133.03 218.678 1105.5 210.623 1049.87 C 186.806 1042.99 164.996 1040.63 180.92 1009.6 C 193.196 985.671 193.78 956.135 195.961 929.512 C 144.866 938.293 113.146 931.22 92.6053 879.57 C 81.6058 851.911 73.4291 829.099 68.8143 799.007 C 65.8426 778.585 64.682 757.94 65.3461 737.313 C 68.6829 647.647 108.611 552.567 180.59 496.909 C 191.701 488.316 203.431 480.553 215.683 473.684 C 222.663 469.807 237.846 462.451 243.573 458.116 C 255.2 449.315 269.278 435.576 280.258 425.408 C 262.341 395.582 288.525 373.452 305.855 349.37 C 311.98 340.86 320.174 334.891 329.98 331.053 C 338.712 303.931 355.041 299.888 381.608 301.914 C 387.987 289.588 398.278 279.391 412.718 278.247 C 433.067 276.635 447.886 294.629 461.924 306.636 C 462.832 300.31 464.335 283.777 462.864 277.745 C 458.727 278.393 456.001 279.121 451.895 278.437 L 450.884 276.997 C 452.881 271.842 455.534 266.408 457.86 261.351 C 453.813 256.526 452.052 254.674 449.166 248.9 C 453.88 244.507 459.918 239.581 461.979 233.583 C 459.893 234.121 458.15 234.708 456.109 235.378 L 454.677 234.319 C 455.109 228.04 467.218 213.102 471.43 207.305 C 469.283 204.717 466.602 202.161 467.647 198.768 C 480.048 194.831 474.573 192.175 479.385 181.837 C 481.104 178.143 485.446 174.576 487.688 171.121 C 494.537 160.568 499.789 149.109 509.77 140.951 C 531.842 122.612 571.252 122.51 598.297 124.495 C 606.266 125.079 615.627 126.822 623.655 127.762 C 626.221 128.063 628.336 124.778 630.194 122.727 z"/>
<path transform="translate(0,0)" fill="rgb(255,255,255)" d="M 558.879 969.974 C 584.865 1026.04 619.351 1085.76 647.959 1141.23 C 680.89 1204.91 710.488 1270.26 736.635 1337.01 C 763.386 1404.17 785.034 1474.08 807.138 1542.88 C 820.395 1584.15 833.161 1632.3 849.347 1672.07 C 831.773 1679.15 778.377 1708.85 762.546 1720.08 C 706.066 1659.38 687.599 1596.23 656.292 1520.92 C 621.304 1436.75 580.676 1358.73 507.937 1301.19 C 512.707 1224.13 519.72 1143.37 520.151 1066.18 C 519.558 1056.87 520.451 1049.19 519.184 1039.44 C 508.842 1102.68 503.791 1158 497.631 1221.32 C 489.526 1304.65 485.553 1397.99 455.462 1476.06 C 442.835 1508.82 420.601 1541.81 402.896 1572.01 C 370.904 1627.13 338.086 1681.77 304.451 1735.9 C 284.006 1728.78 248.554 1717.64 229.617 1709.5 C 233.113 1656.59 248.063 1602.61 268.328 1553.69 C 297.359 1483.62 326.976 1443.57 318.567 1363.4 C 336.884 1393.82 347.526 1413.66 376.916 1434.78 C 358.314 1407.72 340.854 1382.74 327.339 1352.6 C 302.627 1297.49 289.966 1237.73 268.71 1181.1 C 261.529 1161.97 253.71 1147.61 245.695 1129.44 C 235.153 1105.15 227.219 1079.81 222.027 1053.84 C 244.176 1062.5 266.626 1070.64 288.526 1079.9 C 323.385 1094.64 458.778 1160.45 487.505 1148.34 C 489.458 1147.52 490.797 1146.64 491.516 1144.55 C 493.257 1139.48 495.814 1076.95 496.758 1064.92 C 498.517 1042.48 501.421 1020.2 504.248 997.88 C 522.091 987.875 540.314 978.566 558.879 969.974 z"/>
<path transform="translate(0,0)" fill="rgb(142,145,147)" d="M 519.184 1039.44 C 518.962 1036.04 518.565 1034.73 520.326 1031.61 C 521.283 1036.72 520.868 1060.79 520.151 1066.18 C 519.558 1056.87 520.451 1049.19 519.184 1039.44 z"/>
<path transform="translate(0,0)" fill="rgb(255,255,255)" d="M 282.329 787.154 C 281.835 733.817 263.61 695.515 256.473 645.555 C 254.308 631.316 253.717 616.881 254.711 602.512 C 256.404 580.223 274.778 490.048 287.036 477.041 C 366.465 392.757 442.895 356.604 487.295 496.095 C 490.455 506.022 497.358 516.451 498.785 527.846 C 489.452 524.298 480.865 519.97 471.899 515.62 C 485.148 535.181 500.588 535.546 511.958 549.669 C 528.834 570.632 540.691 611.284 549.822 637.143 C 553.398 647.269 555.705 659.719 559.574 670.462 L 559.988 671.586 C 564.072 642.238 558.146 625.659 549.024 598.663 C 558.653 593.087 571.625 584.336 582.627 584.668 C 622.759 585.879 632.194 620.776 633.31 652.482 C 636.841 641.197 638.525 631.825 636.624 620.006 C 634.623 607.234 627.576 595.8 617.066 588.272 C 602.908 578.08 588.401 576.676 571.795 579.077 L 577.346 558.701 C 596.882 550.138 622.045 536.788 640.053 529.666 C 651.633 531.337 658.678 532.775 669.802 536.307 L 671.77 535.049 C 674.039 537.418 678.875 542.175 680.602 544.607 L 679.553 546.353 C 709.095 591.313 693.034 604.906 663.662 641.418 C 625.479 688.883 576.429 739.724 517.756 761.839 C 504.377 757.548 467.94 741.376 457.861 732.445 C 446.872 722.708 439.968 700.249 429.447 686.021 C 412.52 663.132 375.551 628.045 363.596 603.986 C 346.065 568.705 344.33 539.599 314.254 507.996 C 324.436 527.662 330.45 541.106 337.147 562.247 C 342.773 577.518 345.533 598.411 353.893 612.503 C 367.657 635.703 388.645 656.517 405.164 678.067 C 364.597 714.71 322.861 750.041 282.329 787.154 z"/>
<path transform="translate(0,0)" fill="rgb(39,38,38)" d="M 671.77 535.049 C 674.039 537.418 678.875 542.175 680.602 544.607 L 679.553 546.353 C 675.879 541.584 674.835 539.948 669.802 536.307 L 671.77 535.049 z"/>
<path transform="translate(0,0)" fill="rgb(255,255,255)" d="M 433.071 719.956 C 436.124 722.474 443.212 736.576 447.175 740.081 C 460.718 752.058 494.661 764.627 511.859 770.987 C 515.739 831.544 529.019 909.573 558.908 963.2 C 542.296 967.764 522.281 977.91 505.268 984.49 C 510.96 922.289 514.079 853.812 506.388 792.039 C 504.92 803.231 505.336 824.304 505.105 836.187 C 504.658 858.086 503.501 879.965 501.637 901.789 C 498.591 934.212 495.315 966.612 491.809 998.988 C 489.388 1019.69 486.2 1040.13 484.001 1060.93 C 481.115 1088.25 480.923 1112.25 481.576 1139.57 C 435.151 1130.84 386.092 1106.74 343.294 1087.13 C 319.532 1076.28 295.515 1066 271.264 1056.29 C 246.772 1045.85 221.324 1039.43 195.853 1032.03 C 193.119 1031.23 190.832 1030.17 188.906 1028.04 C 187.483 1022.82 190.731 1015.76 192.868 1010.84 C 197.209 1000.84 199.768 992.389 202.042 981.692 C 258.275 998.073 314.015 1022.14 368.968 1042.48 C 392.692 1051.26 421.864 1062.96 445.97 1069.62 C 411.541 1050.47 364.692 1029.8 328.063 1014.22 C 293.806 999.648 238.969 976.293 203.578 968.52 C 204.595 954.777 205.633 941.326 206.113 927.551 C 251.726 913.16 272.42 889.457 271.989 841.065 C 304.622 816.605 338.302 793.222 370.646 768.07 C 390.683 752.488 412.411 734.401 433.071 719.956 z"/>
<path transform="translate(0,0)" fill="rgb(38,37,37)" d="M 394.681 768.649 C 407.98 771.71 430.326 794.031 438.54 805.147 C 433.762 802.682 428.94 800.302 424.078 798.006 C 407.77 821.368 391.031 840.332 374.502 864.969 C 355.631 893.096 337.599 928.795 318.807 955.031 C 336.041 907.622 362.176 858.127 394.373 818.967 C 398.015 814.537 415.377 797.501 415.671 793.332 L 412.337 789.76 L 403.289 781.719 C 388.75 803.902 370.43 823.802 356.369 847.592 C 338.569 877.707 326.758 906.515 307.812 936.13 C 314.738 945.461 317.194 948.723 321.873 959.344 C 312.725 953.637 306.032 945.171 298.885 937.117 C 313 918.986 320.127 896.054 329.869 875.075 C 337.86 858.281 347.274 842.202 358.009 827.015 C 365.2 816.686 372.929 806.681 380.969 796.961 C 386.19 790.65 393.97 785.207 397.059 777.298 C 398.165 774.465 395.908 771.249 394.681 768.649 z"/>
<path transform="translate(0,0)" fill="rgb(255,255,255)" d="M 400.539 372.241 C 442.93 367.232 483.254 416.802 500.478 450.35 C 515.59 479.783 517.876 505.986 516.148 538.289 C 512.141 534.463 509.091 532.166 504.737 528.861 C 503.978 510.998 503.098 494.189 497.887 477.638 C 484.995 435.585 434.98 369.552 384.201 388.287 C 345.077 402.723 269.543 460.169 251.257 497.48 C 250.923 497.584 250.59 497.688 250.257 497.792 L 248.603 498.349 C 243.632 499.981 238.175 502.582 233.806 505.662 C 154.391 562.104 94.7008 668.522 103.302 767.332 C 106.368 802.553 134.636 867.394 154.107 897.858 C 144.977 873.781 136.92 847.634 129.099 823.038 C 123.448 804.581 118.787 788.639 114.25 769.861 C 154.813 762.618 190.668 741.813 215.884 709.137 C 223.324 730.354 229.493 754.499 236.349 776.19 C 242.896 796.901 248.906 818.83 254.729 839.809 C 259.248 854.502 255.192 866.967 247.845 879.712 C 230.741 909.381 159.947 925.101 132.646 906.435 C 108.839 890.158 92.0872 828.066 86.9893 798.928 C 73.3832 721.158 97.8114 629.539 142.497 565.015 C 163.116 536.029 184.092 515.023 213.711 494.908 C 224.256 487.746 241.189 477.386 250.373 469.777 C 295.47 432.416 340.028 383.338 400.539 372.241 z"/>
<path transform="translate(0,0)" fill="rgb(255,255,255)" d="M 564.656 135.408 C 579.488 133.114 613.505 136.791 629.704 138.286 C 643.183 149.427 675.699 169.097 681.21 183.563 C 690.686 208.435 676.034 242.848 666.696 265.247 C 648.875 261.748 639.623 259.259 622.752 253.107 C 585.1 238.961 540.802 217.363 504.672 199.551 C 506.357 191.529 506.96 187.91 505.084 179.965 C 509.419 179.949 519.283 179.259 522.153 181.587 C 522.718 184.259 522.622 184.757 523.986 187.063 C 533.083 182.597 528.577 157.431 523.59 150.841 C 522.38 149.242 523.738 146.459 524.593 144.855 C 531.902 139.453 555.262 136.3 564.656 135.408 z"/>
<path transform="translate(0,0)" fill="rgb(255,255,255)" d="M 692.806 329.889 C 703.938 334.917 715.248 340.731 726.222 346.172 C 710.181 352.591 689.675 361.7 692.843 382.979 C 693.843 389.696 694.895 391.169 699.499 396.17 C 685.178 417.497 682.011 429.797 670.397 450.697 C 651.721 458.534 647.371 480.421 654.743 497.948 C 651.406 502.231 647.41 508.485 644.3 513.105 C 625.025 520.323 603.632 535.752 580.948 544.317 L 581.368 524.414 C 580.277 476.28 565.09 440.981 534.65 404.56 C 540.549 402.249 546.21 400.792 552.305 399.104 C 563.403 404.833 580.136 417.737 592.627 417.797 C 612.921 417.895 640.945 394.48 655.336 381.904 C 670.365 368.771 673.229 359.956 674.024 341.075 C 679.066 337.623 687.329 333.099 692.806 329.889 z"/>
<path transform="translate(0,0)" fill="rgb(255,255,255)" d="M 568.707 310.928 C 567.572 314.212 567.435 314.499 564.707 316.651 C 554.184 317.848 547.591 297.495 546.993 289.206 C 546.397 280.946 546.405 267.473 558.64 269.757 C 573.362 272.506 574.726 283.969 577.081 296.422 C 591.312 303.035 599.085 306.851 614.477 309.215 L 606.755 314.496 C 620.871 310.551 633.204 304.158 646.494 306.033 L 646.567 304.88 C 639.363 297.961 634.123 292.281 628.054 284.269 C 644.799 297.084 669.517 316.338 687.524 326.354 C 679.07 331.516 674.782 334.369 667.087 340.442 C 666.836 353.277 663.693 362.261 653.712 370.841 C 640.24 382.42 610.296 407.568 592.579 406.972 C 582.255 406.624 550.396 385.141 542.591 378.62 C 535.164 355.69 542.536 346.79 547.47 326.274 C 538.902 337.843 537.949 341.67 533.527 355.011 C 530.161 365.168 531.912 384.725 527.029 390.016 C 524.595 390.032 523.352 389.772 521.47 387.3 C 514.763 378.495 508.052 368.136 501.817 358.986 C 491.841 344.346 471.664 323.798 464.728 308.752 C 492.632 340.468 501.705 342.844 533.727 312.642 C 535.905 310.582 538.065 308.501 540.206 306.402 C 543.573 314.777 548.905 333.161 561.43 324.609 C 565.092 322.108 570.127 318.595 570.859 314.026 C 569.929 312.998 569.462 312.106 568.707 310.928 z"/>
<path transform="translate(0,0)" fill="rgb(39,38,38)" d="M 568.707 310.928 C 567.997 307.752 566.674 304.283 567.848 301.52 C 571.165 304.672 570.955 309.811 570.859 314.026 C 569.929 312.998 569.462 312.106 568.707 310.928 z"/>
<path transform="translate(0,0)" fill="rgb(255,255,255)" d="M 415.71 287.197 C 449.358 290.148 524.359 401.772 533.996 434.669 C 528.6 436.847 521.546 438.684 515.819 440.348 C 515.01 438.846 514.182 437.354 513.335 435.873 C 506.328 423.618 498.214 411.939 490.773 400.144 C 468.861 365.408 450.975 344.936 410.278 333.927 C 436.111 351.072 450.371 362.613 468.489 388.033 C 464.568 385.254 460.47 381.958 456.635 379.003 C 429.113 354.786 404.456 355.319 371.367 366.529 C 353.54 372.484 336.695 381.054 321.385 391.957 C 312.938 397.879 293.998 416.203 286.877 415.922 C 271.546 405.058 313.002 354.659 327.035 347.75 C 346.723 338.057 361.302 336.268 382.966 334.245 C 384.291 334.121 384.408 332.944 384.9 331.932 C 378.251 322.096 345.92 331.727 341.177 328.701 C 341.781 323.522 347.384 318.195 351.782 315.823 C 364.005 309.187 378.407 307.826 391.658 312.055 L 393.062 312.516 C 396.993 310.372 384.829 294.099 415.71 287.197 z"/>
<path transform="translate(0,0)" fill="rgb(255,255,255)" d="M 896.435 1775.41 C 901.887 1776.8 912.529 1784.41 922.323 1786.73 C 965.055 1796.86 1007.27 1794.06 1049.88 1786.98 C 1025.65 1814.99 967.794 1834.83 932.545 1852 C 901.858 1868.06 871.581 1884.88 841.744 1902.47 C 836.68 1885.66 829.224 1867.92 825.221 1851.19 C 851.22 1850.84 867.774 1842.78 878.813 1818.26 C 885.16 1804.17 887.803 1788.07 896.435 1775.41 z"/>
<path transform="translate(0,0)" fill="rgb(255,255,255)" d="M 710.539 401.508 C 720.649 407.494 737.764 419.626 747.069 426.867 C 732.4 432.486 719.849 438.576 704.058 437.915 C 700.487 442.457 697.661 447.078 694.549 451.933 C 709.101 449.602 722.538 445.138 736.454 441.358 C 749.869 437.714 797.94 416.049 808.626 427.471 C 808.463 430.228 808.613 430.097 807.025 432.319 C 803.133 433.782 797.97 432.199 793.442 431.545 C 793.252 434.527 801.413 439.731 802.991 444.533 C 804.468 449.026 799.428 458.035 797.316 462.835 C 791.33 465.25 785.342 467.56 779.517 470.337 L 780.024 470.98 C 783.999 475.449 784.574 476.735 787.283 482.137 C 784.231 488.188 782.65 492.047 780.242 498.384 C 788.295 518.889 774.829 511.424 771.716 524.774 C 772.91 529.97 774.178 533.57 769.107 537.017 C 758.465 544.251 743.684 546.666 731.32 546.81 C 727.33 518.618 711.689 488.618 680.59 484.493 C 683.311 472.379 683.448 463.445 691.502 453.507 C 689.925 453.208 684.507 454.111 682.565 454.368 C 691.175 433.741 698.392 420 710.539 401.508 z"/>
<path transform="translate(0,0)" fill="rgb(255,255,255)" d="M 248.553 500.832 C 249.661 504.602 236.858 545.625 235.115 553.014 C 223.837 600.797 215.247 649.774 212.532 698.859 C 198.135 719.188 178.987 733.377 157.512 745.405 C 156.448 739.149 159.531 695.446 160.77 687.016 C 167.109 643.885 179.592 584.962 202.435 548.094 C 212.978 531.078 233.359 512.82 248.553 500.832 z"/>
<path transform="translate(0,0)" fill="rgb(255,255,255)" d="M 264.768 1832.82 C 269.623 1834.09 287.225 1853.75 293.063 1858.63 C 320.567 1881.29 353.522 1896.36 388.653 1902.33 C 346.585 1912.25 311.223 1908.68 269.246 1905.31 C 235.042 1903.6 192.931 1906.32 158.498 1908.76 C 159.588 1893.47 165.647 1870.19 170.427 1855.43 C 209.793 1883.92 230.197 1851.49 264.768 1832.82 z"/>
<path transform="translate(0,0)" fill="rgb(255,255,255)" d="M 627.081 266.626 C 660.287 273.955 668.402 277.989 703.519 276.829 C 724.566 290.113 749.661 299.51 770.929 312.619 C 784.043 320.702 795.723 324.548 784.712 340.19 C 778.058 345.86 769.499 347.183 761.223 345.017 C 724.213 335.329 648.963 297.045 627.081 266.626 z"/>
<path transform="translate(0,0)" fill="rgb(255,255,255)" d="M 185.615 561.86 C 185.605 567.165 173.454 589.314 171.175 596.855 C 157.641 641.62 143.33 703.283 149.871 749.512 C 135.306 755.226 128.892 757.661 113.396 760.159 C 112.621 756.913 112.366 754.592 112.284 751.283 C 110.656 685.814 140.242 609.194 185.615 561.86 z"/>
<path transform="translate(0,0)" fill="rgb(255,255,255)" d="M 748.835 780.491 C 756.725 780.487 794.176 778.731 798.476 781.505 C 798.838 784.479 799.007 784.384 798.069 787.172 C 795.363 788.886 755.169 788.049 748.852 788.037 L 605.272 788.178 C 604.68 827.31 605.159 867.594 605.149 906.816 C 623.88 906.89 769.222 904.916 772.844 907.582 C 773.561 911.044 773.903 909.552 772.14 912.276 C 764.353 916.513 730.882 914.588 719.519 914.473 L 605.128 914.315 L 605.16 1012.65 C 603.415 1009.62 596.94 999.208 596.756 996.756 C 595.262 976.903 596.258 953.454 596.271 933.575 L 596.095 780.926 C 645.154 779.582 699.285 780.654 748.835 780.491 z"/>
<path transform="translate(0,0)" fill="rgb(255,255,255)" d="M 1064.07 1784.43 C 1077.03 1785.96 1075.93 1796.44 1070.3 1805.05 C 1060.2 1820.5 1044.11 1832.51 1028.5 1841.91 C 998.714 1859.83 964.07 1867.4 933.041 1882.83 C 915.857 1891.09 869.542 1919.71 855.21 1923.34 C 851.45 1921.61 845.919 1917.44 844.672 1913.26 C 843.662 1908.61 853.864 1905.56 857.251 1903.84 C 904.488 1879.88 950.124 1855.18 998.992 1834.44 C 1023.97 1823.84 1050.58 1808.54 1064.07 1784.43 z"/>
<path transform="translate(0,0)" fill="rgb(255,255,255)" d="M 861.52 1680.08 C 866.294 1684.59 874.617 1713.6 872.874 1720.48 C 863.788 1728.9 803.839 1759.75 788.945 1766.03 C 787.917 1766.46 787.144 1765.19 786.034 1764.13 C 779.513 1753.88 773.089 1742.94 768.36 1731.73 C 787.029 1718.16 840.634 1688.54 861.52 1680.08 z"/>
<path transform="translate(0,0)" fill="rgb(255,255,255)" d="M 214.75 1718.09 C 243.25 1730.8 276.823 1741.11 306.554 1751.7 C 304.633 1766.97 299.909 1779.33 292.229 1792.45 C 285.997 1794.11 211.741 1764.18 204.622 1757.92 C 200.945 1744.89 208.991 1729.63 214.75 1718.09 z"/>
<path transform="translate(0,0)" fill="rgb(255,255,255)" d="M 415.866 688.943 C 419.766 692.981 423.703 701.078 426.354 706.173 C 408.644 720.031 390.17 733.271 372.292 747.088 C 339.05 772.66 306.338 798.916 274.179 825.839 L 270.717 828.711 L 269.02 828.416 C 266.299 824.409 265.375 816.097 264.209 810.693 C 301.104 782.511 338.299 756.49 372.963 725.151 C 385.566 713.757 402.329 698.597 415.866 688.943 z"/>
<path transform="translate(0,0)" fill="rgb(255,255,255)" d="M 239.414 620.716 C 238.674 619.818 261.295 725.157 262.584 732.086 C 266.369 753.351 269.925 774.657 273.251 795.999 C 269.556 798.416 265.774 800.351 261.889 802.441 C 252.827 781.84 231.554 715.554 228.663 693.639 C 227.549 685.196 237.236 633.012 239.414 620.716 z"/>
<path transform="translate(0,0)" fill="rgb(255,255,255)" d="M 864.621 1744.81 C 868.725 1746.83 878.194 1770.17 880.43 1775.47 C 870.652 1800.75 871.934 1821.35 847.11 1836.54 C 845.211 1833.42 843.109 1828.66 841.481 1825.25 C 833.581 1805.53 825.413 1789.36 815.904 1770.45 C 832.775 1763.16 849.062 1754.59 864.621 1744.81 z"/>
<path transform="translate(0,0)" fill="rgb(255,255,255)" d="M 211.589 1780.25 C 232.121 1787.3 246.626 1792.78 266.379 1801.71 C 263.123 1808.87 261.764 1813.75 260.712 1821.4 C 245.799 1828.5 240.796 1832.06 227.709 1842.16 C 219.865 1848.23 196.729 1866.6 189.148 1852.87 C 190.178 1847.9 191.888 1842.59 193.616 1837.82 C 200.461 1818.95 204.811 1799.05 211.589 1780.25 z"/>
<path transform="translate(0,0)" fill="rgb(255,255,255)" d="M 400.001 1908.3 C 401.934 1908.41 400.963 1908.15 402.756 1909.95 C 403.171 1928.15 361.704 1931.28 348.829 1931.76 C 302.062 1933.51 256.161 1923.99 209.132 1928.04 C 196.414 1929.14 174.956 1929.8 163.165 1926.55 C 159.807 1924.21 156.185 1920.8 158.149 1916.56 C 169.8 1914.69 184.374 1916.12 196.443 1915.4 C 244.636 1912.51 291.951 1918.55 339.822 1919.23 C 358.709 1919.49 381.134 1911.93 400.001 1908.3 z"/>
<path transform="translate(0,0)" fill="rgb(255,255,255)" d="M 649.693 522.443 C 655.912 513.699 665.624 496.995 675.823 494.509 C 677.731 494.043 685.153 493.903 687.452 493.861 C 696.931 498.78 702.35 504.009 708.187 513.554 C 713.714 522.591 722.561 543.161 717.017 553.279 C 715.045 556.878 704.116 566.174 700.523 569.447 C 693.94 561.121 687.3 552.841 680.602 544.607 C 678.875 542.175 674.039 537.418 671.77 535.049 C 665.117 527.806 658.869 526.259 649.693 522.443 z"/>
<path transform="translate(0,0)" fill="rgb(255,255,255)" d="M 841.639 429.957 C 862.506 428.496 861.482 449.338 857.054 463.704 C 850.964 483.466 838.479 504.11 820.036 514.368 L 811.755 512.306 C 803.765 509.247 784.916 502.579 796.897 490.833 C 799.321 490.412 805.06 489.567 807.018 488.437 C 828.643 475.961 836.137 458.433 826.549 436.126 C 831.392 434.326 836.807 431.954 841.639 429.957 z"/>
<path transform="translate(0,0)" fill="rgb(255,255,255)" d="M 865.996 434.516 C 886.076 439.009 888.66 442.185 885.265 464.478 C 881.707 487.838 867.219 514.169 847.798 528.011 C 838.626 530.163 835.784 525.626 829.956 519.578 C 851.957 495.952 872.494 468.527 865.996 434.516 z"/>
<path transform="translate(0,0)" fill="rgb(255,255,255)" d="M 611.554 1032.72 C 667.374 1033.71 723.448 1032.42 779.284 1032.9 C 786.525 1032.96 793.561 1032.69 800.792 1033.37 C 802.633 1036.02 802.04 1037.03 802.289 1040.83 L 681.216 1040.67 C 665.451 1040.7 630.051 1041.75 615.567 1040.26 C 612.488 1037.73 613.126 1037.2 611.554 1032.72 z"/>
<path transform="translate(0,0)" fill="rgb(255,255,255)" d="M 688.139 186.528 C 695.322 190.9 703.03 203.678 705.636 211.952 C 707.007 216.172 707.619 220.602 707.443 225.036 C 707.297 228.804 700.065 263.308 698.806 265.62 L 696.25 266.109 C 688.801 266.091 682.834 265.741 675.391 265.17 C 686.079 235.464 693.62 218.362 688.139 186.528 z"/>
<path transform="translate(0,0)" fill="rgb(255,255,255)" d="M 761.021 385.942 C 772.119 384.339 781.732 392.853 789.983 399.254 C 788.999 404.94 788.253 411.44 787.456 417.219 C 781.549 416.967 779.668 416.719 773.75 418.205 C 766.37 420.241 751.882 425.403 748.381 416.099 C 743.755 403.807 750.654 391.56 761.021 385.942 z"/>
<path transform="translate(0,0)" fill="rgb(255,255,255)" d="M 560.886 469.594 C 573.72 494.119 573.36 545.657 563.585 571.487 C 560.572 579.45 558.505 582.282 551.009 585.491 C 548.027 586.395 548.048 586.41 544.943 586.499 C 544.238 583.95 547.662 578.332 549.116 574.987 C 553.674 564.568 557.056 553.673 559.202 542.504 C 564.574 515.729 563.834 496.14 560.886 469.594 z"/>
<path transform="translate(0,0)" fill="rgb(255,255,255)" d="M 734.989 361.597 C 743.634 365.073 757.472 374.924 765.637 380.416 C 752.354 382.335 747.187 384.251 741.409 397.058 C 740.691 400.572 740.188 404.326 739.638 407.887 C 733.963 403.837 725.859 399.073 719.786 395.176 C 723.043 381.733 726.817 372.718 734.989 361.597 z"/>
<path transform="translate(0,0)" fill="rgb(255,255,255)" d="M 804.289 395.723 C 820.249 401.126 818.59 404.614 812.731 417.99 L 799.305 413.827 C 800.324 406.098 801.253 402.67 804.289 395.723 z"/>
<path transform="translate(0,0)" fill="rgb(255,255,255)" d="M 723.991 360.958 L 724.284 361.257 C 724.656 363.415 713.354 386.625 711.325 390.078 L 709.696 390.308 C 693.946 375.158 713.564 367.53 723.991 360.958 z"/>
<path transform="translate(0,0)" fill="rgb(255,255,255)" d="M 673.412 460.677 L 675.131 461.153 C 676.904 465.369 673.031 478.053 671.408 482.698 C 670.016 486.684 668.067 486.813 664.586 488.316 C 656.687 481.662 665.349 465.259 673.412 460.677 z"/>
<path transform="translate(0,0)" fill="rgb(255,255,255)" d="M 492.187 181.46 C 498.121 181.511 501.209 181.176 503.135 187.238 C 502.36 191.846 502.102 192.107 499.771 196.273 C 494.993 195.828 492.747 195.402 489.866 191.556 C 489.056 187.482 490.476 185.522 492.187 181.46 z"/>
<path transform="translate(0,0)" fill="rgb(255,255,255)" d="M 811.329 438.459 C 819.189 442.194 820.311 451.184 817.679 458.809 C 813.127 454.1 807.905 444.916 811.329 438.459 z"/>
<path transform="translate(0,0)" fill="rgb(38,37,37)" d="M 1398.21 753.021 L 1477.19 753.15 L 1477.06 1058.12 L 1438.1 1058.15 C 1419.65 1058.37 1392.22 1062.49 1378.07 1050.39 C 1372.77 1045.87 1368.67 1042.03 1364.02 1036.83 C 1311.96 978.612 1262.59 916.476 1208.97 859.763 C 1207.06 922.36 1208.64 993.875 1208.63 1057.09 L 1128.86 1057.1 L 1128.96 753.814 L 1180.56 753.5 C 1193.39 753.396 1206.21 753.374 1219.04 753.434 C 1232.99 768.953 1248.13 788.663 1262.03 804.834 C 1307.19 857.381 1350.47 911.386 1398.09 961.792 C 1397.43 892.384 1398.84 822.82 1398.21 753.021 z"/>
<path transform="translate(0,0)" fill="rgb(255,255,255)" d="M 1434.84 781.1 C 1438.3 781.18 1438.61 781.011 1441.96 782.203 C 1443.63 787.36 1442.7 836.724 1442.71 844.438 L 1443.01 1010.1 C 1436.46 1019.01 1431.43 1022.31 1421.28 1026.71 C 1416.69 1028.98 1403.51 1030.35 1399.27 1026.89 C 1381.72 1012.54 1365.9 991.275 1351.2 974.019 L 1254.41 860.324 C 1236.93 839.738 1219.43 818.871 1201.66 798.545 C 1200.08 796.74 1195.71 792.478 1193.57 791.862 C 1187.01 789.977 1181.47 790.533 1175.32 793.003 C 1173.45 795.067 1173.23 796.087 1173.2 799.49 C 1172.96 823.853 1173.14 848.804 1173.14 873.123 L 1173.3 1029.18 C 1170.05 1029.21 1168.84 1029.4 1165.68 1028.38 C 1163.05 1021.34 1164.96 812.801 1165.02 789.346 C 1201.1 769.915 1211.11 800.014 1232.73 822.943 C 1240.61 831.309 1248.18 841.266 1255.68 850.098 L 1361.24 973.386 C 1373.94 988.311 1386.92 1005.74 1401.17 1018.85 C 1410.57 1027.51 1428.33 1015.84 1434.64 1007.58 C 1434.9 932.405 1433.98 856.114 1434.84 781.1 z"/>
<path transform="translate(0,0)" fill="rgb(38,37,37)" d="M 1284.02 1128.29 C 1309.25 1127.12 1343.32 1128.3 1369.7 1128.05 C 1382.22 1153.47 1394.02 1180.22 1406 1205.96 C 1442.98 1285.39 1479.28 1365.14 1514.9 1445.19 C 1487.71 1445.31 1460.51 1445.28 1433.31 1445.09 C 1425.03 1428.86 1415.91 1405.96 1408.17 1388.81 L 1368.99 1388.58 L 1241.26 1388.05 L 1216.72 1445.8 L 1139.85 1446.13 C 1144.46 1433.55 1151.57 1418.79 1157.19 1406.38 L 1186.27 1342.06 C 1218.21 1270.51 1250.8 1199.25 1284.02 1128.29 z"/>
<path transform="translate(0,0)" fill="rgb(255,255,255)" d="M 1319.97 1155.3 C 1329.65 1154.67 1343.09 1154.98 1350.57 1161.98 C 1357.25 1168.24 1453.73 1386.28 1462.8 1409.2 C 1463.72 1411.52 1464.61 1413.92 1464.53 1416.45 C 1464.48 1418.06 1463.87 1418.06 1462.76 1418.98 C 1454.6 1418.44 1451.08 1403.47 1448.41 1397.01 C 1443.59 1385.19 1438.47 1373.49 1433.04 1361.94 L 1334.5 1362.04 L 1220.19 1362.06 C 1215.11 1373.39 1210.13 1384.77 1205.24 1396.19 C 1202.48 1402.84 1198.88 1415.86 1192.9 1419.38 C 1189 1419.21 1190.78 1419.8 1187.5 1417.27 C 1189.17 1410.78 1203.48 1380.13 1207.05 1372.1 L 1255.73 1263.43 L 1284.55 1198.66 C 1289.55 1187.43 1294.86 1174.32 1301.14 1163.85 C 1304.91 1157.58 1313.26 1156.52 1319.97 1155.3 z"/>
<path transform="translate(0,0)" fill="rgb(38,37,37)" d="M 1324.61 1162.36 C 1333.68 1162.59 1336.57 1162.6 1344.95 1166.77 C 1349.81 1173.1 1363.05 1205.02 1367.29 1214.35 L 1430.38 1354.53 C 1397.21 1355.09 1362.76 1354.65 1329.49 1354.69 L 1223.57 1354.9 C 1242.41 1307.81 1266.65 1261.34 1286.57 1214.61 C 1293.18 1199.1 1300.32 1182.42 1308.68 1167.89 C 1311.18 1163.55 1320.08 1162.85 1324.61 1162.36 z"/>
<path transform="translate(0,0)" fill="rgb(255,255,255)" d="M 1326.12 1202.78 C 1331.15 1211.37 1339.13 1230.97 1343.66 1241.25 C 1356.5 1270.5 1369.08 1299.85 1381.41 1329.31 L 1323.75 1329.45 L 1270.47 1329.53 C 1282.23 1301.44 1294.25 1273.46 1306.54 1245.59 C 1311.31 1234.66 1320.44 1211.99 1326.12 1202.78 z"/>
<path transform="translate(0,0)" fill="rgb(38,37,37)" d="M 968.953 753.991 L 985.093 754.007 L 985.038 1597.65 C 1061.35 1598.72 1138.64 1598 1215.05 1598.01 L 1662.93 1597.35 L 1663.06 756.1 L 1678.88 755.813 L 1678.77 775.826 L 1679.16 1613.34 C 1599.84 1612.54 1519.77 1613.76 1440.37 1613.81 L 968.65 1614.02 L 968.953 753.991 z"/>
</svg>